<?xml version="1.0" standalone="no"?>
<!DOCTYPE svg PUBLIC "-//W3C//DTD SVG 20010904//EN"
 "http://www.w3.org/TR/2001/REC-SVG-20010904/DTD/svg10.dtd">
<svg version="1.0" xmlns="http://www.w3.org/2000/svg"
 width="300.000000pt" height="300.000000pt" viewBox="0 0 300.000000 300.000000"
 preserveAspectRatio="xMidYMid meet">
<metadata>
Created by potrace 1.11, written by Peter Selinger 2001-2013
</metadata>
<g transform="translate(0.000000,300.000000) scale(0.100000,-0.100000)"
fill="#000000" stroke="none">
<path d="M1005 2701 c-114 -29 -179 -116 -180 -241 0 -106 33 -169 117 -220
18 -11 41 -20 50 -20 16 0 18 -49 21 -777 1 -428 6 -789 9 -802 51 -174 191
-299 376 -336 277 -56 527 97 581 353 7 36 11 295 11 807 0 658 2 755 15 755
22 0 87 39 113 69 45 51 56 82 56 166 1 111 -38 179 -129 228 -39 22 -49 22
-525 24 -267 1 -498 -2 -515 -6z m986 -190 c25 -31 24 -74 -4 -106 l-22 -27
-465 0 -464 0 -23 26 c-30 35 -30 80 0 110 l24 24 467 -2 468 -1 19 -24z
m-173 -1065 c-3 -750 -3 -762 -24 -807 -31 -66 -78 -114 -142 -146 -50 -24
-69 -28 -147 -28 -76 0 -99 4 -145 26 -67 31 -120 83 -152 147 l-23 47 -3 762
-3 762 321 -1 321 -1 -3 -761z"/>
<path d="M1525 1810 c-104 -27 -206 -53 -226 -59 l-37 -11 0 -504 c1 -538 1
-544 52 -610 78 -102 268 -112 359 -17 65 67 65 63 64 688 0 407 -3 563 -11
562 -6 0 -96 -23 -201 -49z"/>
</g>
</svg>
